<svg xmlns="http://www.w3.org/2000/svg" width="1200" height="320" viewBox="0 0 1200 320" role="img" aria-label="Lavender-rise-main — 很久以前做梦做的 Minecraft 客户端 · 早已停更，为了当年造它的人重新发布" font-family="Georgia,'Iowan Old Style','Times New Roman',Times,serif"><rect width="1200" height="320" fill="#0B0A0C"/><text x="34" y="44" font-size="12" font-family="ui-monospace,'Cascadia Mono',Consolas,'SF Mono',monospace" font-weight="400" fill="#6b7280" text-anchor="start" letter-spacing="2.0" opacity="0.9">INK LAB / 04 · tree · crayon</text><path d="M33.94 56.06 L317.03 54.95 L317.04 54.94 L600.02 55.26 L599.98 55.24 L883.06 57.07 L883.0 57.13 L1165.94 56.0" fill="none" stroke="#6b7280" stroke-width="1.2" stroke-linecap="round" stroke-linejoin="round" opacity="1.0"/><text x="34" y="112" font-size="42" font-family="Georgia,'Iowan Old Style','Times New Roman',Times,serif" font-weight="400" fill="#f0eee6" text-anchor="start">Lavender-rise-main</text><path d="M33.99 123.96 L132.35 118.09 L132.27 118.01 L230.62 126.57 L230.54 126.59 L328.87 132.94 L328.87 133.02 L427.05 124.0" fill="none" stroke="#6b7280" stroke-width="2.4" stroke-linecap="round" stroke-linejoin="round" opacity="1.0"/><text x="34" y="152" font-size="17" font-family="Georgia,'Iowan Old Style','Times New Roman',Times,serif" font-weight="400" fill="#f0eee6" text-anchor="start" font-style="italic" opacity="0.92">很久以前做梦做的 Minecraft 客户端 · 早已停更，为了当年造它的人重新发布</text><path d="M61.23 199.72 L60.93 199.94 L59.57 204.63 L56.08 208.2 L51.2 209.2 L46.54 207.35 L43.46 203.42 L42.89 198.54 L45.09 194.02 L49.25 191.0 L54.23 191.33 L58.44 193.84 L60.91 197.99" fill="none" stroke="#6b7280" stroke-width="2.4" stroke-linecap="round" stroke-linejoin="round" opacity="1.0"/><path d="M66.04 200.01 L99.48 200.27 L99.55 200.36 L133.07 200.86 L132.93 200.9 L166.49 200.78 L166.47 200.75 L199.98 200.06" fill="none" stroke="#f0eee6" stroke-width="2.0" stroke-linecap="round" stroke-linejoin="round" opacity="1.0"/><path d="M66.0 200.05 L66.59 206.53 L66.52 206.47 L66.07 213.01 L66.14 213.03 L65.94 219.57 L65.88 219.52 L66.03 226.04" fill="none" stroke="#6b7280" stroke-width="1.2" stroke-linecap="round" stroke-linejoin="round" opacity="1.0"/><path d="M65.98 225.98 L72.47 225.98 L72.57 225.86 L78.97 225.97 L79.03 225.88 L85.52 225.75 L85.53 225.81 L91.94 225.97" fill="none" stroke="#6b7280" stroke-width="1.2" stroke-linecap="round" stroke-linejoin="round" opacity="1.0"/><text x="100" y="232" font-size="13" font-family="ui-monospace,'Cascadia Mono',Consolas,'SF Mono',monospace" font-weight="400" fill="#f0eee6" text-anchor="start" opacity="0.9">java</text><path d="M65.97 200.04 L65.35 212.46 L65.36 212.55 L66.21 224.97 L66.28 225.04 L65.82 237.54 L65.83 237.46 L66.06 250.04" fill="none" stroke="#6b7280" stroke-width="1.2" stroke-linecap="round" stroke-linejoin="round" opacity="1.0"/><path d="M65.99 250.02 L72.44 250.53 L72.43 250.4 L78.95 250.19 L79.02 250.13 L85.57 249.66 L85.46 249.65 L92.05 249.98" fill="none" stroke="#6b7280" stroke-width="1.2" stroke-linecap="round" stroke-linejoin="round" opacity="1.0"/><text x="100" y="256" font-size="13" font-family="ui-monospace,'Cascadia Mono',Consolas,'SF Mono',monospace" font-weight="400" fill="#f0eee6" text-anchor="start" opacity="0.9">legacy-project</text><path d="M66.03 199.99 L65.14 218.53 L65.19 218.44 L66.85 236.94 L66.83 237.01 L67.66 255.43 L67.73 255.45 L65.98 274.04" fill="none" stroke="#6b7280" stroke-width="1.2" stroke-linecap="round" stroke-linejoin="round" opacity="1.0"/><path d="M66.06 274.06 L72.52 274.32 L72.55 274.33 L79.07 273.99 L78.98 273.98 L85.51 273.61 L85.51 273.64 L91.99 273.94" fill="none" stroke="#6b7280" stroke-width="1.2" stroke-linecap="round" stroke-linejoin="round" opacity="1.0"/><text x="100" y="280" font-size="13" font-family="ui-monospace,'Cascadia Mono',Consolas,'SF Mono',monospace" font-weight="400" fill="#f0eee6" text-anchor="start" opacity="0.9">minecraft-client</text><text x="1166" y="150" font-size="30" font-family="Georgia,'Iowan Old Style','Times New Roman',Times,serif" font-weight="400" fill="#6b7280" text-anchor="end">★10</text><text x="1166" y="172" font-size="11" font-family="ui-monospace,'Cascadia Mono',Consolas,'SF Mono',monospace" font-weight="400" fill="#6b7280" text-anchor="end" letter-spacing="2.0" opacity="0.9">JAVA · AGPL-3.0</text><text x="1166" y="190" font-size="11" font-family="ui-monospace,'Cascadia Mono',Consolas,'SF Mono',monospace" font-weight="400" fill="#6b7280" text-anchor="end" letter-spacing="2.0" opacity="0.6">2026-07-10</text><path d="M11.97 11.98 L1188.01 11.96 L1188.02 308.0 L12.0 307.97 Z" fill="none" stroke="#f0eee6" stroke-width="1.6" stroke-linecap="round" stroke-linejoin="round" opacity="1.0"/><path d="M13.94 10.97 L1190.01 10.94 L1190.04 307.0 L14.0 306.96 Z" transform="translate(1.6 1.2)" fill="none" stroke="#f0eee6" stroke-width="1.1" stroke-linecap="round" stroke-linejoin="round" opacity="0.22"/></svg>